HIERARCHY
ROOT Hips
{
	OFFSET 0.000000 97.167313 0.000000
	CHANNELS 6 Xposition Yposition Zposition Xrotation Yrotation Zrotation
	JOINT Spine
	{
		OFFSET 0.000000 13.784798 0.064400
		CHANNELS 3 Xrotation Yrotation Zrotation
		JOINT Spine1
		{
			OFFSET 0.000000 12.037903 0.404700
			CHANNELS 3 Xrotation Yrotation Zrotation
			JOINT Spine2
			{
				OFFSET 0.000000 17.795601 0.420200
				CHANNELS 3 Xrotation Yrotation Zrotation
				JOINT Neck
				{
					OFFSET 0.000000 39.131302 11.954600
					CHANNELS 3 Xrotation Yrotation Zrotation
					JOINT Head
					{
						OFFSET 0.000000 14.456192 15.627699
						CHANNELS 3 Xrotation Yrotation Zrotation
						JOINT HeadTop_End
						{
							OFFSET 0.000000 15.703506 7.603401
							CHANNELS 3 Xrotation Yrotation Zrotation
							End Site
							{
								OFFSET 0.000000 17.447403 0.000000
							}
						}
					}
				}
				JOINT LeftShoulder
				{
					OFFSET 17.399500 24.608795 1.168800
					CHANNELS 3 Xrotation Yrotation Zrotation
					JOINT LeftArm
					{
						OFFSET 18.980635 5.765305 1.818600
						CHANNELS 3 Xrotation Yrotation Zrotation
						JOINT LeftForeArm
						{
							OFFSET 49.290169 0.000000 0.000000
							CHANNELS 3 Xrotation Yrotation Zrotation
							JOINT LeftHand
							{
								OFFSET 31.562012 0.000000 0.000000
								CHANNELS 3 Xrotation Yrotation Zrotation
								JOINT LeftHandThumb1
								{
									OFFSET 6.133995 -4.388519 7.076070
									CHANNELS 3 Xrotation Yrotation Zrotation
									JOINT LeftHandThumb2
									{
										OFFSET 6.037666 -3.485840 3.485847
										CHANNELS 3 Xrotation Yrotation Zrotation
										JOINT LeftHandThumb3
										{
											OFFSET 6.496506 -3.750763 3.750761
											CHANNELS 3 Xrotation Yrotation Zrotation
											JOINT LeftHandThumb4
											{
												OFFSET 5.616882 -3.242905 3.242910
												CHANNELS 3 Xrotation Yrotation Zrotation
												End Site
												{
													OFFSET -1.254608 7.132141 0.375429
												}
											}
										}
									}
								}
								JOINT LeftHandPinky1
								{
									OFFSET 18.920792 -0.453171 -11.426712
									CHANNELS 3 Xrotation Yrotation Zrotation
									JOINT LeftHandPinky2
									{
										OFFSET 4.919586 0.000000 0.000000
										CHANNELS 3 Xrotation Yrotation Zrotation
										JOINT LeftHandPinky3
										{
											OFFSET 5.233047 0.000000 0.000000
											CHANNELS 3 Xrotation Yrotation Zrotation
											JOINT LeftHandPinky4
											{
												OFFSET 5.571716 0.000000 0.000000
												CHANNELS 3 Xrotation Yrotation Zrotation
												End Site
												{
													OFFSET -3.459808 4.342407 -0.466164
												}
											}
										}
									}
								}
								JOINT LeftHandRing1
								{
									OFFSET 22.726120 -0.094986 -6.500475
									CHANNELS 3 Xrotation Yrotation Zrotation
									JOINT LeftHandRing2
									{
										OFFSET 6.408615 0.000000 0.000000
										CHANNELS 3 Xrotation Yrotation Zrotation
										JOINT LeftHandRing3
										{
											OFFSET 6.150223 0.000000 0.000000
											CHANNELS 3 Xrotation Yrotation Zrotation
											JOINT LeftHandRing4
											{
												OFFSET 6.145386 0.000000 0.000000
												CHANNELS 3 Xrotation Yrotation Zrotation
												End Site
												{
													OFFSET -3.671402 4.923981 -0.202372
												}
											}
										}
									}
								}
								JOINT LeftHandMiddle1
								{
									OFFSET 23.373947 0.000000 0.000001
									CHANNELS 3 Xrotation Yrotation Zrotation
									JOINT LeftHandMiddle2
									{
										OFFSET 6.996567 0.000000 0.000000
										CHANNELS 3 Xrotation Yrotation Zrotation
										JOINT LeftHandMiddle3
										{
											OFFSET 7.015945 0.000000 0.000000
											CHANNELS 3 Xrotation Yrotation Zrotation
											JOINT LeftHandMiddle4
											{
												OFFSET 7.721573 0.000000 0.000000
												CHANNELS 3 Xrotation Yrotation Zrotation
												End Site
												{
													OFFSET -4.651108 6.158463 0.251582
												}
											}
										}
									}
								}
								JOINT LeftHandIndex1
								{
									OFFSET 21.310577 -0.490082 6.209344
									CHANNELS 3 Xrotation Yrotation Zrotation
									JOINT LeftHandIndex2
									{
										OFFSET 7.536453 0.000000 0.000000
										CHANNELS 3 Xrotation Yrotation Zrotation
										JOINT LeftHandIndex3
										{
											OFFSET 7.512344 0.000000 0.000000
											CHANNELS 3 Xrotation Yrotation Zrotation
											JOINT LeftHandIndex4
											{
												OFFSET 10.212402 0.000000 0.000001
												CHANNELS 3 Xrotation Yrotation Zrotation
												End Site
												{
													OFFSET -5.180801 8.690506 1.388433
												}
											}
										}
									}
								}
							}
						}
					}
				}
				JOINT RightShoulder
				{
					OFFSET -17.399500 24.608795 1.168800
					CHANNELS 3 Xrotation Yrotation Zrotation
					JOINT RightArm
					{
						OFFSET -18.980635 5.765305 1.818600
						CHANNELS 3 Xrotation Yrotation Zrotation
						JOINT RightForeArm
						{
							OFFSET -49.290169 0.000000 0.000000
							CHANNELS 3 Xrotation Yrotation Zrotation
							JOINT RightHand
							{
								OFFSET -31.562012 0.000000 0.000000
								CHANNELS 3 Xrotation Yrotation Zrotation
								JOINT RightHandThumb1
								{
									OFFSET -6.133995 -4.388519 7.076070
									CHANNELS 3 Xrotation Yrotation Zrotation
									JOINT RightHandThumb2
									{
										OFFSET -6.037666 -3.485840 3.485847
										CHANNELS 3 Xrotation Yrotation Zrotation
										JOINT RightHandThumb3
										{
											OFFSET -6.496506 -3.750763 3.750761
											CHANNELS 3 Xrotation Yrotation Zrotation
											JOINT RightHandThumb4
											{
												OFFSET -5.616882 -3.242905 3.242910
												CHANNELS 3 Xrotation Yrotation Zrotation
												End Site
												{
													OFFSET 1.254608 7.132141 0.375429
												}
											}
										}
									}
								}
								JOINT RightHandIndex1
								{
									OFFSET -21.310577 -0.490082 6.209344
									CHANNELS 3 Xrotation Yrotation Zrotation
									JOINT RightHandIndex2
									{
										OFFSET -7.536453 0.000000 0.000000
										CHANNELS 3 Xrotation Yrotation Zrotation
										JOINT RightHandIndex3
										{
											OFFSET -7.512344 0.000000 0.000000
											CHANNELS 3 Xrotation Yrotation Zrotation
											JOINT RightHandIndex4
											{
												OFFSET -10.212402 0.000000 0.000001
												CHANNELS 3 Xrotation Yrotation Zrotation
												End Site
												{
													OFFSET 5.180801 8.690506 1.388433
												}
											}
										}
									}
								}
								JOINT RightHandMiddle1
								{
									OFFSET -23.373947 0.000000 0.000001
									CHANNELS 3 Xrotation Yrotation Zrotation
									JOINT RightHandMiddle2
									{
										OFFSET -6.996567 0.000000 0.000000
										CHANNELS 3 Xrotation Yrotation Zrotation
										JOINT RightHandMiddle3
										{
											OFFSET -7.015945 0.000000 0.000000
											CHANNELS 3 Xrotation Yrotation Zrotation
											JOINT RightHandMiddle4
											{
												OFFSET -7.721573 0.000000 0.000000
												CHANNELS 3 Xrotation Yrotation Zrotation
												End Site
												{
													OFFSET 4.651108 6.158463 0.251582
												}
											}
										}
									}
								}
								JOINT RightHandRing1
								{
									OFFSET -22.726120 -0.094986 -6.500475
									CHANNELS 3 Xrotation Yrotation Zrotation
									JOINT RightHandRing2
									{
										OFFSET -6.408615 0.000000 0.000000
										CHANNELS 3 Xrotation Yrotation Zrotation
										JOINT RightHandRing3
										{
											OFFSET -6.150223 0.000000 0.000000
											CHANNELS 3 Xrotation Yrotation Zrotation
											JOINT RightHandRing4
											{
												OFFSET -6.145386 0.000000 0.000000
												CHANNELS 3 Xrotation Yrotation Zrotation
												End Site
												{
													OFFSET 3.671402 4.923981 -0.202372
												}
											}
										}
									}
								}
								JOINT RightHandPinky1
								{
									OFFSET -18.920792 -0.453171 -11.426712
									CHANNELS 3 Xrotation Yrotation Zrotation
									JOINT RightHandPinky2
									{
										OFFSET -4.919586 0.000000 0.000000
										CHANNELS 3 Xrotation Yrotation Zrotation
										JOINT RightHandPinky3
										{
											OFFSET -5.233047 0.000000 0.000000
											CHANNELS 3 Xrotation Yrotation Zrotation
											JOINT RightHandPinky4
											{
												OFFSET -5.571716 0.000000 0.000000
												CHANNELS 3 Xrotation Yrotation Zrotation
												End Site
												{
													OFFSET 3.459808 4.342407 -0.466164
												}
											}
										}
									}
								}
							}
						}
					}
				}
			}
		}
	}
	JOINT LeftUpLeg
	{
		OFFSET 19.899099 -7.885101 -3.429500
		CHANNELS 3 Xrotation Yrotation Zrotation
		JOINT LeftLeg
		{
			OFFSET 1.745560 -36.997807 10.304700
			CHANNELS 3 Xrotation Yrotation Zrotation
			JOINT LeftFoot
			{
				OFFSET -1.745558 -29.803308 -13.615400
				CHANNELS 3 Xrotation Yrotation Zrotation
				JOINT LeftToeBase
				{
					OFFSET 1.181900 -18.539904 15.226099
					CHANNELS 3 Xrotation Yrotation Zrotation
					JOINT LeftToe_End
					{
						OFFSET -0.863701 1.402801 16.534700
						CHANNELS 3 Xrotation Yrotation Zrotation
						End Site
						{
							OFFSET 0.000000 16.616566 0.000000
						}
					}
				}
			}
		}
	}
	JOINT RightUpLeg
	{
		OFFSET -19.899099 -7.885101 -3.429500
		CHANNELS 3 Xrotation Yrotation Zrotation
		JOINT RightLeg
		{
			OFFSET -1.745560 -36.997807 10.304700
			CHANNELS 3 Xrotation Yrotation Zrotation
			JOINT RightFoot
			{
				OFFSET 1.745558 -29.803308 -13.615400
				CHANNELS 3 Xrotation Yrotation Zrotation
				JOINT RightToeBase
				{
					OFFSET -1.181900 -18.539904 15.226099
					CHANNELS 3 Xrotation Yrotation Zrotation
					JOINT RightToe_End
					{
						OFFSET 0.863701 1.402801 16.534700
						CHANNELS 3 Xrotation Yrotation Zrotation
						End Site
						{
							OFFSET 0.000000 16.616566 0.000000
						}
					}
				}
			}
		}
	}
}
MOTION
Frames: 4
Frame Time: 0.033333
1.467240 87.398659 5.395655 1.593562 -10.595672 -1.490857 12.107497 1.847879 2.424001 0.142933 0.790015 -0.451655 0.128173 0.774269 -0.484385 -7.766551 0.311068 -0.623518 -24.426146 3.267387 -1.375482 -0.000002 -0.000000 0.000000 2.205624 -7.365293 -2.354227 -2.599186 1.303672 -76.543451 0.000007 -20.202098 0.000024 23.656464 -3.895204 -1.218371 -6.106847 -1.930938 19.040247 14.414848 23.921358 -9.853772 -0.777667 -13.103926 2.822979 0.000004 0.000002 0.000000 11.741162 8.100741 -91.100797 2.341267 4.684412 -53.092495 2.225454 4.595456 -51.661007 0.000004 -0.000000 -0.000000 6.395800 8.240267 -86.410820 1.938006 4.353413 -47.977540 2.138582 4.525598 -50.568330 -0.000000 -0.000001 0.000001 2.068504 7.009955 -64.710981 3.702538 5.443575 -68.422861 2.591878 4.861926 -56.103676 0.000006 -0.000001 0.000002 -1.067716 2.833558 -37.208258 4.198298 5.613568 -73.565078 2.559876 4.840321 -55.725256 -0.000001 0.000000 -0.000004 0.103491 16.298640 5.575360 -12.359856 19.758689 65.635113 0.000003 18.889187 -0.000015 5.072279 1.044972 -3.003253 -17.482426 -12.032375 -6.363844 6.358368 -14.447592 -2.112202 -5.504773 -5.510959 -14.718527 0.000001 0.000000 0.000003 -1.954279 1.600883 22.820029 0.803752 -2.617391 34.136302 0.289723 -1.618553 20.295909 -0.000002 -0.000002 0.000003 -1.955390 -1.562971 39.879828 0.725778 -2.498633 32.389402 0.552003 -2.201167 28.153529 -0.000002 0.000002 0.000001 -0.835017 -3.315575 44.840991 1.033357 -2.927220 38.880753 0.478634 -2.058282 26.178906 0.000000 0.000002 -0.000005 0.569850 -4.610510 40.474308 1.391871 -3.322489 45.450203 0.658993 -2.390208 30.823633 -0.000001 0.000000 0.000001 -50.343043 8.114083 12.758777 99.916515 4.639723 -1.032584 -21.015278 -1.175698 9.513790 -0.042900 0.000005 0.000009 -0.000005 0.000000 -0.000001 -19.099016 -6.857047 5.175943 31.322438 -8.651209 -5.052100 -14.254411 -5.756279 1.751282 0.000005 -0.000002 -0.000000 0.000000 -0.000002 0.000000 
1.541453 88.394539 7.321732 2.039176 -10.624253 -0.773321 12.358761 1.977957 1.667791 0.218028 0.899492 -0.706637 0.197508 0.874634 -0.745069 -7.840764 0.439503 -0.544311 -25.029483 2.236048 -0.890111 0.000001 0.000000 -0.000000 2.192623 -7.374104 -2.803135 -3.722504 2.310573 -75.579445 0.000002 -16.654305 -0.000005 24.163865 -4.361726 -1.071518 -5.551059 -1.652174 18.106673 13.928138 23.489205 -9.309742 -1.579666 -12.098837 3.355102 0.000004 0.000001 -0.000001 11.318138 8.556693 -86.428777 2.399655 4.727558 -53.804354 2.196300 4.572327 -51.296206 -0.000001 0.000000 -0.000002 6.057259 8.257688 -83.121585 1.983234 4.393636 -48.570742 2.134022 4.521866 -50.510612 -0.000000 0.000001 0.000003 1.914119 6.878575 -62.783782 3.395159 5.312318 -65.144029 2.361249 4.699290 -53.336879 -0.000004 -0.000001 0.000004 -1.075925 2.687812 -36.018449 3.832416 5.492947 -69.785491 2.213364 4.585868 -51.509807 -0.000001 0.000001 0.000001 0.102136 16.302905 5.575608 -13.921466 20.056087 65.632626 0.000006 19.947199 0.000008 6.849235 0.764049 -3.731083 -17.482422 -12.032381 -6.363837 6.358369 -14.447592 -2.112194 -5.504776 -5.510960 -14.718542 0.000000 -0.000001 -0.000000 -1.954290 1.600877 22.820039 0.791893 -2.599820 33.875795 0.289727 -1.618557 20.295905 0.000003 0.000000 0.000002 -1.955399 -1.562963 39.879825 0.718995 -2.487915 32.233425 0.552016 -2.201196 28.153519 0.000000 0.000000 -0.000001 -0.835025 -3.315570 44.840988 1.024451 -2.916161 38.706108 0.478635 -2.058276 26.178915 -0.000002 0.000003 -0.000005 0.569843 -4.610506 40.474332 1.383773 -3.314517 45.310447 0.667939 -2.405118 31.037496 0.000002 0.000001 -0.000001 -53.028482 6.297343 13.545601 100.049916 3.332941 -2.867754 -26.673461 -0.465761 5.299397 -0.042911 0.000000 -0.000001 -0.000002 -0.000000 -0.000000 -16.888403 -7.261586 4.080830 29.211937 -7.578457 -4.943647 -14.717857 -5.798119 2.006916 0.000013 0.000009 -0.000001 -0.000000 -0.000000 0.000000 
1.585660 89.402191 9.210567 2.481457 -10.637594 -0.092221 12.647527 2.104488 0.898040 0.299671 1.016619 -0.976021 0.273010 0.981997 -1.020673 -7.916120 0.572539 -0.464386 -25.659510 1.186399 -0.395676 -0.000001 0.000000 0.000000 2.179217 -7.386317 -3.262492 -4.959766 3.273282 -74.604920 0.000003 -12.863720 -0.000011 24.653621 -4.914343 -0.925628 -4.929662 -1.348785 17.056012 13.386245 23.002684 -8.708562 -2.480071 -10.998542 3.979582 0.000001 -0.000000 -0.000002 10.800763 9.030560 -81.190465 2.465669 4.775006 -54.601150 2.163856 4.546219 -50.887959 0.000006 0.000004 0.000001 5.677897 8.254355 -79.440503 2.034362 4.438111 -49.234705 2.128953 4.517671 -50.446063 0.000001 -0.000003 0.000005 1.746773 6.725522 -60.628174 3.060822 5.144938 -61.476538 2.112897 4.504437 -50.242161 -0.000001 -0.000001 0.000008 -1.081522 2.524533 -34.687153 3.433536 5.329861 -65.557802 1.849145 4.271901 -46.796037 -0.000001 -0.000002 -0.000001 0.098702 16.313745 5.576250 -15.790093 20.453049 65.722143 -0.000002 21.031949 0.000015 8.599628 0.421977 -4.449598 -17.482434 -12.032392 -6.363842 6.358375 -14.447602 -2.112221 -5.504775 -5.510965 -14.718515 -0.000001 -0.000001 0.000001 -1.954284 1.600875 22.820038 0.780108 -2.582218 33.615295 0.289736 -1.618565 20.295902 -0.000002 -0.000001 0.000001 -1.955394 -1.562966 39.879835 0.712238 -2.477175 32.077451 0.552014 -2.201187 28.153516 -0.000002 -0.000001 -0.000004 -0.835010 -3.315571 44.840984 1.015576 -2.905062 38.531477 0.478628 -2.058294 26.178901 -0.000001 0.000001 -0.000003 0.569849 -4.610508 40.474311 1.375699 -3.306532 45.170732 0.676939 -2.420000 31.251350 -0.000001 -0.000003 0.000003 -55.369977 4.404454 14.466489 99.485988 2.341188 -4.828680 -31.853475 0.470758 1.059008 -0.042902 -0.000001 0.000001 -0.000002 0.000001 -0.000000 -14.641957 -7.888994 3.150838 26.787980 -6.133778 -4.910176 -14.907441 -6.103743 2.103605 0.000016 -0.000002 -0.000001 0.000000 -0.000002 -0.000000 
1.596312 90.143135 11.052735 2.904488 -10.617790 0.534456 12.938718 2.215873 0.126338 0.382487 1.133705 -1.245424 0.349795 1.089325 -1.296292 -7.991314 0.703283 -0.384819 -26.254371 0.142462 0.096123 -0.000000 -0.000000 -0.000000 2.166064 -7.396636 -3.711518 -6.229977 4.207444 -73.656603 0.000001 -9.315922 0.000006 25.163892 -5.375612 -0.761658 -4.261362 -1.037083 15.928431 12.810147 22.479384 -8.074932 -3.446524 -9.851962 4.680404 0.000001 0.000002 0.000003 10.199671 9.490089 -75.579950 2.536935 4.824668 -55.452899 2.129374 4.518049 -50.451650 -0.000000 0.000001 0.000001 5.273595 8.224154 -75.506252 2.089586 4.484974 -49.944471 2.123498 4.513198 -50.377010 -0.000001 -0.000000 0.000002 1.574519 6.555155 -58.325369 2.716241 4.942899 -57.558755 1.859605 4.281688 -46.936240 -0.000002 0.000002 0.000004 -1.083301 2.349936 -33.264346 3.021919 5.123681 -61.041742 1.490033 3.904580 -41.762153 -0.000002 0.000005 0.000002 0.095520 16.323814 5.576844 -17.878396 20.902052 65.943120 0.000009 22.111334 0.000008 10.345524 0.037926 -5.146171 -17.482424 -12.032373 -6.363817 6.358373 -14.447600 -2.112221 -5.504773 -5.510963 -14.718515 -0.000000 -0.000003 0.000001 -1.954295 1.600895 22.820046 0.768413 -2.564559 33.354799 0.289732 -1.618559 20.295895 0.000001 -0.000001 -0.000001 -1.955398 -1.562947 39.879852 0.705512 -2.466414 31.921456 0.552011 -2.201180 28.153516 0.000001 0.000001 -0.000001 -0.835021 -3.315557 44.841015 1.006758 -2.893965 38.356812 0.478636 -2.058275 26.178908 -0.000002 -0.000000 -0.000003 0.569851 -4.610492 40.474345 1.367651 -3.298528 45.030969 0.686000 -2.434851 31.465223 -0.000002 -0.000000 0.000006 -57.183648 3.077654 15.343460 97.189378 1.643641 -6.630015 -35.296659 1.897300 -2.235770 -0.042907 -0.000001 -0.000001 -0.000001 -0.000001 0.000000 -12.674721 -8.701167 2.369474 24.874359 -4.567325 -4.965540 -15.322848 -6.546670 2.171685 0.000014 0.000002 0.000000 0.000000 0.000002 0.000000 
